<svg id="fde80275-8830-4350-a5c1-e8d2edf93329" data-name="Layer 1" xmlns="http://www.w3.org/2000/svg" xmlns:xlink="http://www.w3.org/1999/xlink" width="859.4" height="719" viewBox="0 0 859.4 719"><defs><linearGradient id="ff554486-8304-490f-a3b7-b6f78a692a2d" x1="601.7" y1="806.94" x2="601.7" y2="90.55" gradientUnits="userSpaceOnUse"><stop offset="0" stop-color="gray" stop-opacity="0.25"/><stop offset="0.54" stop-color="gray" stop-opacity="0.12"/><stop offset="1" stop-color="gray" stop-opacity="0.1"/></linearGradient><linearGradient id="ecb3ead8-0a08-4a16-a9c6-07c8e5422196" x1="344.92" y1="369.4" x2="505.4" y2="369.4" xlink:href="#ff554486-8304-490f-a3b7-b6f78a692a2d"/></defs><title>Security on</title><rect x="145.52" y="524.87" width="71.6" height="7.16" fill="#b0bec5"/><rect x="171.52" y="611.87" width="71.6" height="7.16" fill="#b0bec5"/><rect x="228.8" y="653.93" width="36.69" height="8.05" fill="#b0bec5"/><rect x="247.6" y="697.78" width="36.69" height="5.37" fill="#b0bec5"/><g opacity="0.5"><path d="M601.7,90.55l-278,171.08s0,352.85,278,545.31c278-192.46,278-545.31,278-545.31Z" transform="translate(-170.3 -90.5)" fill="url(#ff554486-8304-490f-a3b7-b6f78a692a2d)"/></g><path d="M601.7,101.25,332,267.22s0,342.31,269.7,529c269.7-186.72,269.7-529,269.7-529Z" transform="translate(-170.3 -90.5)" fill="#fff"/><path d="M603.31,101.25l-4.61,2.83V793c1.53,1.08,3.06,2.17,4.61,3.24C873,609.53,873,267.22,873,267.22Z" transform="translate(-170.3 -90.5)" fill="#383751" opacity="0.04"/><g opacity="0.7"><polygon points="366.11 347.07 416.95 393.67 479.98 302.75 505.4 323.94 416.95 436.04 344.92 355.54 366.11 347.07" fill="url(#ecb3ead8-0a08-4a16-a9c6-07c8e5422196)"/></g><polygon points="378.11 349.87 419.35 387.67 477.78 301.75 498.4 318.94 419.35 422.04 360.92 356.74 378.11 349.87" fill="#3ad29f"/><path d="M398.3,602.44S352,607.82,366,635.82a317.85,317.85,0,0,1,21.27,56.8l24.49-5.12s-9.69-45.76-18.3-51.14l23.15-4.31Z" transform="translate(-170.3 -90.5)" fill="#fda57d"/><path d="M393.46,636.36l23.15-4.31L398.3,602.44s-.54.06-1.48.21L415,632.05l-23.15,4.31c8.62,5.38,18.31,51.14,18.31,51.14l-23,4.8.09.32,24.49-5.12S402.07,641.74,393.46,636.36Z" transform="translate(-170.3 -90.5)" opacity="0.05"/><path d="M402,682.32s-14.3,10.26-36,9.44c0,0-11.54,5.25,4.79,9.43s42.68,1.23,44.75-2-.86-14.14-5.68-18.61S402,682.32,402,682.32Z" transform="translate(-170.3 -90.5)" fill="#383751"/><path d="M439.76,668.12s-1.08,21,6.46,36.07l5.38,72.69h17.23s0-35.54,8.08-54.38-4.31-39.84-4.31-39.84l-1.08-21.54Z" transform="translate(-170.3 -90.5)" fill="#fda57d"/><circle cx="280.23" cy="352.57" r="22.07" fill="#fda57d"/><rect x="265.15" y="363.88" width="26.92" height="24.23" fill="#fda57d"/><path d="M462.37,771.49s-16.15,7-37.15,1.62c0,0-12.38,2.69,2.69,10.23s41.46,10.23,44.15,7.53,2.16-14-1.61-19.38S462.37,771.49,462.37,771.49Z" transform="translate(-170.3 -90.5)" fill="#383751"/><path d="M393.73,522.49,362,604.32s-24.23,6.46-11.84,18.31c0,0-2.16-11.31,15.07-8.08,0,0,4.85,8.08,4.85,10.77s5.53-9,3.3-14.72A131.36,131.36,0,0,1,400.19,565s13.46-23.69,12.92-39.84Z" transform="translate(-170.3 -90.5)" fill="#fda57d"/><path d="M500.33,493.41s17.23,8.08,25.84,5.39c6.1-1.91,12.74-14.08,16.1-21a10.47,10.47,0,0,1,8.16-5.85c6.4-.77,15.37-.69,12.89,6.41-3.77,10.77-16.15,14-16.15,14L529.4,517.1H498.17Z" transform="translate(-170.3 -90.5)" fill="#fda57d"/><circle cx="276.19" cy="350.69" r="22.61" fill="#3d213c"/><ellipse cx="288.03" cy="330.5" rx="16.69" ry="9.42" fill="#3d213c"/><polygon points="269.55 585.78 269.55 588.49 301.91 584.35 301.91 581.26 269.55 585.78" opacity="0.05"/><polygon points="224.32 512.52 222.15 512.96 232.6 544.1 233.91 543.86 224.32 512.52" opacity="0.05"/><polygon points="338.91 406.36 341.05 407.01 341.74 426.6 338.91 426.6 338.91 406.36" opacity="0.05"/><polygon points="222.44 434.52 221.73 436.37 240.85 448.33 241.39 446.24 222.44 434.52" opacity="0.05"/><path d="M414.86,590.65l-3.17,1.26s53.09,25.73,70.59,3.19l-.58-2S465.61,614.66,414.86,590.65Z" transform="translate(-170.3 -90.5)" opacity="0.05"/><path d="M335.59,138.46a3.69,3.69,0,0,1-2-4.44,2,2,0,0,0,.08-.41h0a1.84,1.84,0,0,0-3.31-1.22h0a1.58,1.58,0,0,0-.2.36,3.68,3.68,0,0,1-4.44,2.05,1.49,1.49,0,0,0-.41-.08h0A1.84,1.84,0,0,0,324,138h0a1.58,1.58,0,0,0,.36.2,3.68,3.68,0,0,1,2.05,4.44,1.86,1.86,0,0,0-.08.41h0a1.84,1.84,0,0,0,3.31,1.22h0a1.58,1.58,0,0,0,.2-.36,3.68,3.68,0,0,1,4.44-2.05,2,2,0,0,0,.41.08h0a1.84,1.84,0,0,0,1.22-3.31h0A1.58,1.58,0,0,0,335.59,138.46Z" transform="translate(-170.3 -90.5)" fill="#4d8af0" opacity="0.5"/><path d="M189.59,463.46a3.69,3.69,0,0,1-2.05-4.44,2,2,0,0,0,.08-.41h0a1.84,1.84,0,0,0-3.31-1.22h0a1.58,1.58,0,0,0-.2.36,3.68,3.68,0,0,1-4.44,2.05,1.49,1.49,0,0,0-.41-.08h0A1.84,1.84,0,0,0,178,463h0a1.58,1.58,0,0,0,.36.2,3.68,3.68,0,0,1,2,4.44,1.86,1.86,0,0,0-.08.41h0a1.84,1.84,0,0,0,3.31,1.22h0a1.58,1.58,0,0,0,.2-.36,3.68,3.68,0,0,1,4.44-2.05,2,2,0,0,0,.41.08h0a1.84,1.84,0,0,0,1.22-3.31h0A1.58,1.58,0,0,0,189.59,463.46Z" transform="translate(-170.3 -90.5)" fill="#4d8af0" opacity="0.5"/><circle cx="748.4" cy="254" r="6" fill="#f55f44" opacity="0.5"/><circle cx="121.4" cy="683" r="6" fill="#f55f44" opacity="0.5"/><circle cx="850.4" cy="485" r="6" fill="#f55f44" opacity="0.5"/><path d="M874.59,167.46a3.69,3.69,0,0,1-2.05-4.44,2,2,0,0,0,.08-.41h0a1.84,1.84,0,0,0-3.31-1.22h0a1.58,1.58,0,0,0-.2.36,3.68,3.68,0,0,1-4.44,2.05,1.49,1.49,0,0,0-.41-.08h0A1.84,1.84,0,0,0,863,167h0a1.58,1.58,0,0,0,.36.2,3.68,3.68,0,0,1,2.05,4.44,1.86,1.86,0,0,0-.08.41h0a1.84,1.84,0,0,0,3.31,1.22h0a1.58,1.58,0,0,0,.2-.36,3.68,3.68,0,0,1,4.44-2.05,2,2,0,0,0,.41.08h0a1.84,1.84,0,0,0,1.22-3.31h0A1.58,1.58,0,0,0,874.59,167.46Z" transform="translate(-170.3 -90.5)" fill="#4d8af0" opacity="0.5"/><path d="M974.59,795.46a3.69,3.69,0,0,1-2.05-4.44,2,2,0,0,0,.08-.41h0a1.84,1.84,0,0,0-3.31-1.22h0a1.58,1.58,0,0,0-.2.36,3.68,3.68,0,0,1-4.44,2,1.49,1.49,0,0,0-.41-.08h0A1.84,1.84,0,0,0,963,795h0a1.58,1.58,0,0,0,.36.2,3.68,3.68,0,0,1,2.05,4.44,1.86,1.86,0,0,0-.08.41h0a1.84,1.84,0,0,0,3.31,1.22h0a1.58,1.58,0,0,0,.2-.36,3.68,3.68,0,0,1,4.44-2.05,2,2,0,0,0,.41.08h0a1.84,1.84,0,0,0,1.22-3.31h0A1.58,1.58,0,0,0,974.59,795.46Z" transform="translate(-170.3 -90.5)" fill="#4d8af0" opacity="0.5"/><path d="M182.59,273.46a3.69,3.69,0,0,1-2.05-4.44,2,2,0,0,0,.08-.41h0a1.84,1.84,0,0,0-3.31-1.22h0a1.58,1.58,0,0,0-.2.36,3.68,3.68,0,0,1-4.44,2.05,1.49,1.49,0,0,0-.41-.08h0A1.84,1.84,0,0,0,171,273h0a1.58,1.58,0,0,0,.36.2,3.68,3.68,0,0,1,2,4.44,1.86,1.86,0,0,0-.08.41h0a1.84,1.84,0,0,0,3.31,1.22h0a1.58,1.58,0,0,0,.2-.36,3.68,3.68,0,0,1,4.44-2.05,2,2,0,0,0,.41.08h0a1.84,1.84,0,0,0,1.22-3.31h0A1.58,1.58,0,0,0,182.59,273.46Z" transform="translate(-170.3 -90.5)" fill="#4d8af0" opacity="0.5"/><circle cx="79.4" cy="284" r="6" fill="#47e6b1" opacity="0.5"/><circle cx="853.4" cy="332" r="6" fill="#47e6b1" opacity="0.5"/><g opacity="0.5"><rect x="583.4" width="3" height="17" fill="#47e6b1"/><rect x="753.7" y="90.5" width="3" height="17" transform="translate(683.9 -746.7) rotate(90)" fill="#47e6b1"/></g><g opacity="0.5"><rect x="594.4" y="666" width="3" height="17" fill="#47e6b1"/><rect x="764.7" y="756.5" width="3" height="17" transform="translate(1360.9 -91.7) rotate(90)" fill="#47e6b1"/></g><g opacity="0.5"><rect x="26.4" y="702" width="3" height="17" fill="#47e6b1"/><rect x="196.7" y="792.5" width="3" height="17" transform="translate(828.9 512.3) rotate(90)" fill="#47e6b1"/></g><g opacity="0.5"><rect x="709.4" y="396" width="3" height="17" fill="#47e6b1"/><rect x="879.7" y="486.5" width="3" height="17" transform="translate(1205.9 -476.7) rotate(90)" fill="#47e6b1"/></g><polygon points="795.61 123.02 802.05 128.92 811.18 115.5 814.4 118.19 802.05 134.29 792.92 124.09 795.61 123.02" fill="#47e6b1" opacity="0.5"/><path d="M388.87,595.15l15,42.76q10.78-3.51,21.82-6.22A36.41,36.41,0,0,1,437,630.43c-3,.55-2.53,2.52-3.36,5.5s-.58,6.13-.4,9.22A156.36,156.36,0,0,1,432,676.26a239.93,239.93,0,0,1,48.3-5.38,154.16,154.16,0,0,1-4.48-26.63,31.13,31.13,0,0,1,0-7.09c.48-3.18,1.84-6.16,3-9.17a73.16,73.16,0,0,0,4.62-21.62,19.58,19.58,0,0,0-.91-8.45c-1.42-3.55-4.59-6.17-8.09-7.71a38.93,38.93,0,0,0-11.11-2.58c-14.39-1.78-28.49-1.43-42.93-1.29-5.54,0-8.25,1.77-13.24,4.17C405.53,591.28,389.59,597.22,388.87,595.15Z" transform="translate(-170.3 -90.5)" fill="#383751"/><path d="M416.78,480.52c-8.73,4.73-15.66,12.12-22.43,19.39L377.48,518a251,251,0,0,1,24,12.86c2.86,1.74,5.84,3.71,7.21,6.77s.87,6.53.25,9.78a155.9,155.9,0,0,1-12.11,37.3c13.58,3,27.39,6,39.5,12.8,3.06,1.72,6.14,3.72,9.64,4a20.94,20.94,0,0,0,6.23-.75l30.72-6.9a5.7,5.7,0,0,0,2.68-1.11,5.81,5.81,0,0,0,1.25-2c5.41-11.84,10.95-24.25,10.37-37.26-.28-6.13-1.91-12.35-.51-18.32s7.57-11.54,13.29-9.3l2.52-28.77c.29-3.24.35-7-2.18-9.08-1.76-1.42-4.21-1.49-6.36-2.2-3.4-1.12-6-3.84-9-5.8-8.19-5.37-18.77-4.73-28.53-3.89-8.3.71-16.53,2-24.78.8C432.74,475.69,424.93,476.11,416.78,480.52Z" transform="translate(-170.3 -90.5)" fill="#383751"/></svg>