<?xml version="1.0" encoding="UTF-8" standalone="no"?><!DOCTYPE svg PUBLIC "-//W3C//DTD SVG 1.1//EN" "http://www.w3.org/Graphics/SVG/1.1/DTD/svg11.dtd"><svg width="100%" height="100%" viewBox="0 0 139 45" version="1.1" xmlns="http://www.w3.org/2000/svg" xmlns:xlink="http://www.w3.org/1999/xlink" xml:space="preserve" xmlns:serif="http://www.serif.com/" style="fill-rule:evenodd;clip-rule:evenodd;stroke-linejoin:round;stroke-miterlimit:2;"><g><g><path d="M48.958,36.692c1.388,-0.946 1.837,-2.788 1.041,-4.267c-1.687,-3.116 -2.65,-6.683 -2.65,-10.474c0,-12.115 9.836,-21.951 21.951,-21.951c12.115,0 21.951,9.836 21.951,21.951c0,3.791 -0.963,7.358 -2.657,10.471c-0.797,1.482 -0.347,3.328 1.044,4.276c1.041,0.695 1.613,1.462 1.613,2.265c0,3.332 -9.836,6.037 -21.951,6.037c-12.115,0 -21.951,-2.705 -21.951,-6.037c0,-0.803 0.572,-1.57 1.609,-2.271Zm20.342,-34.497c10.904,0 19.756,8.853 19.756,19.756c0,10.904 -8.852,19.756 -19.756,19.756c-10.904,0 -19.756,-8.852 -19.756,-19.756c0,-10.903 8.852,-19.756 19.756,-19.756Z" style="fill:#373737;"/><path d="M85.472,29.968c0.021,-0.041 0.07,-0.058 0.111,-0.039c0.042,0.019 0.061,0.067 0.043,0.109c-2.65,6.071 -8.516,10.295 -15.319,10.295c-0.002,0 -0.004,0 -0.005,0c-0.03,-0.001 -0.054,-0.025 -0.055,-0.055c-0.001,-0.03 0.022,-0.056 0.052,-0.059c6.479,-0.705 12.041,-4.649 15.173,-10.251Z" style="fill:#373737;"/><path d="M43.735,12.073c0.662,0.004 1.199,0.544 1.199,1.207c0,0.375 -0.171,0.71 -0.439,0.932l0,4.404c0.602,-0.516 1.346,-0.872 2.164,-1.001c-0.268,1.405 -0.408,2.854 -0.408,4.336c0,1.482 0.14,2.932 0.408,4.337c-2.096,-0.332 -3.7,-2.148 -3.7,-4.337l0,-7.739c-0.269,-0.222 -0.439,-0.557 -0.439,-0.932c0,-0.663 0.536,-1.203 1.199,-1.207l0.008,0l0.008,0Z" style="fill:#373737;"/><path d="M94.105,18.616l0,-4.404c-0.268,-0.222 -0.439,-0.557 -0.439,-0.932c0,-0.666 0.541,-1.207 1.207,-1.207c0.667,0 1.207,0.541 1.207,1.207c0,0.375 -0.17,0.71 -0.439,0.932l0,7.739c0,2.189 -1.604,4.005 -3.7,4.337c0.268,-1.405 0.408,-2.855 0.408,-4.337c0,-1.482 -0.14,-2.931 -0.408,-4.336c0.818,0.129 1.562,0.485 2.164,1.001Z" style="fill:#373737;"/><path d="M84.122,19.417c0,1.008 -0.685,1.886 -1.662,2.13c-1.824,0.456 -4.733,1.183 -6.556,1.639c-0.978,0.244 -1.663,1.122 -1.663,2.13l0,4.165c0,0.981 -0.651,1.842 -1.594,2.111c-2.231,0.633 -4.459,0.621 -6.688,-0.015c-0.942,-0.267 -1.592,-1.126 -1.592,-2.105c-0.008,-1.213 -0.008,-2.901 -0.008,-4.156c0,-1.008 -0.685,-1.886 -1.663,-2.13c-1.823,-0.456 -4.732,-1.183 -6.556,-1.639c-0.977,-0.244 -1.662,-1.122 -1.662,-2.13l0,-6.556c0,-0.97 0.636,-1.824 1.565,-2.103c8.84,-2.609 17.68,-2.641 26.52,-0.002c0.925,0.281 1.557,1.133 1.557,2.099c0.002,1.803 0.002,4.717 0.002,6.562Zm-17.176,-9.332c0.088,-0.007 0.167,0.052 0.185,0.138c0.018,0.086 -0.032,0.172 -0.115,0.2c-4.103,1.399 -7.616,3.529 -10.203,6.151c-0.112,0.116 -0.284,0.153 -0.434,0.093c-0.15,-0.06 -0.249,-0.206 -0.249,-0.368c-0.001,-0.98 -0.001,-2.325 -0.001,-2.325c0,-0.97 0.637,-1.824 1.565,-2.103c3.084,-0.91 6.168,-1.507 9.252,-1.786Z" style="fill:#373737;"/></g><g><path d="M109.523,28.902c0,0.582 0.471,1.053 1.052,1.053c2.533,0 9.034,0 12.77,0c1.744,0 3.398,-0.772 4.52,-2.107c0,0 0,0 0,0l-17.29,0c-0.581,0 -1.052,0.471 -1.052,1.052c0,0.001 0,0.002 0,0.002Z" style="fill:#373737;"/><path d="M133.239,21.446l0,0.001c-1.121,1.335 -2.776,2.107 -4.52,2.107c-4.889,0 -14.886,0 -18.144,0c-0.581,0 -1.052,-0.472 -1.052,-1.053c0,-0.001 0,-0.001 0,-0.002c0,-0.581 0.471,-1.053 1.052,-1.053l22.664,0Z" style="fill:#373737;"/><path d="M138.614,15.045l0,0.001c-1.122,1.335 -2.776,2.106 -4.52,2.106c-5.914,0 -19.619,0 -23.519,0c-0.581,0 -1.052,-0.471 -1.052,-1.052c0,-0.001 0,-0.002 0,-0.002c0,-0.582 0.471,-1.053 1.052,-1.053l28.039,0Z" style="fill:#373737;"/></g><g><path d="M29.077,28.902c0,0.582 -0.471,1.053 -1.052,1.053c-2.533,0 -9.034,0 -12.77,0c-1.744,0 -3.398,-0.772 -4.52,-2.107c0,0 0,0 0,0l17.29,0c0.581,0 1.052,0.471 1.052,1.052c0,0.001 0,0.002 0,0.002Z" style="fill:#373737;"/><path d="M29.077,22.501c0,0.581 -0.471,1.053 -1.052,1.053c-3.258,0 -13.255,0 -18.144,0c-1.744,0 -3.399,-0.772 -4.52,-2.107c0,0 0,-0.001 0,-0.001l22.664,0c0.581,0 1.052,0.472 1.052,1.053c0,0.001 0,0.001 0,0.002Z" style="fill:#373737;"/><path d="M29.077,16.1c0,0.581 -0.471,1.052 -1.052,1.052c-3.9,0 -17.605,0 -23.519,0c-1.744,0 -3.398,-0.771 -4.52,-2.106c0,-0.001 0,-0.001 0,-0.001l28.039,0c0.581,0 1.052,0.471 1.052,1.053c0,0 0,0.001 0,0.002Z" style="fill:#373737;"/></g></g></svg>