<?xml version="1.0" encoding="UTF-8" standalone="no"?>
<!DOCTYPE svg PUBLIC "-//W3C//DTD SVG 1.1//EN" "http://www.w3.org/Graphics/SVG/1.1/DTD/svg11.dtd">
<svg width="100%" height="100%" viewBox="0 0 583 148" version="1.1" xmlns="http://www.w3.org/2000/svg" xmlns:xlink="http://www.w3.org/1999/xlink" xml:space="preserve" xmlns:serif="http://www.serif.com/" style="fill-rule:evenodd;clip-rule:evenodd;stroke-linejoin:round;stroke-miterlimit:1.41421;">
    <g transform="matrix(1,0,0,1,-348.565,-515.096)">
        <g transform="matrix(1,0,0,1,0,188.914)">
            <g transform="matrix(0.667292,0,0,0.667292,146.552,195.006)">
                <path d="M422.737,313.683C429.324,309.502 435.025,303.716 439.193,296.497C446.027,284.66 447.464,271.179 444.271,258.909C443.253,254.911 442.75,250.847 442.737,246.806C442.687,238.252 444.833,229.573 449.405,221.633L449.409,221.627L449.411,221.622L449.435,221.58L449.459,221.539C451.33,218.296 453.577,215.244 456.179,212.457L456.188,212.447L456.216,212.417L456.312,212.314L456.352,212.272L456.4,212.221L456.469,212.148L456.488,212.128L456.507,212.108C460.106,208.322 464.227,205.184 468.689,202.744C476.224,198.607 484.385,196.617 492.453,196.581C501.045,196.522 509.764,198.676 517.736,203.279C525.709,207.882 531.934,214.356 536.179,221.827C540.182,228.831 542.539,236.894 542.724,245.488C542.841,250.572 542.184,255.71 540.705,260.72L540.697,260.747L540.689,260.773L540.661,260.869L540.64,260.937L540.624,260.991L540.583,261.126L540.571,261.166L540.567,261.178C539.454,264.826 537.935,268.297 536.062,271.539L536.038,271.58L536.014,271.621L536.011,271.626L536.006,271.634C531.41,279.573 524.957,285.776 517.512,290.011C514.015,292.012 510.253,293.603 506.293,294.717C494.07,298.087 483.113,306.072 476.279,317.909C469.524,329.609 468.042,342.916 471.093,355.072C471.002,354.724 470.906,354.376 470.806,354.03L470.77,353.904L470.755,353.853L470.749,353.832L470.74,353.802C469.614,349.944 468.034,346.277 466.062,342.865L466.038,342.824L466.009,342.773C461.364,334.748 454.821,328.497 447.275,324.259C443.845,322.321 440.164,320.777 436.294,319.688C431.526,318.374 426.95,316.357 422.737,313.683Z" style="fill:rgb(47,166,196);"/>
            </g>
            <g transform="matrix(0.667292,0,0,0.667292,248.471,133.498)">
                <path d="M246.887,365.827C247.214,373.622 249.375,381.452 253.542,388.671C260.376,400.508 271.333,408.493 283.556,411.863C287.527,412.981 291.298,414.577 294.804,416.586C302.237,420.82 308.68,427.018 313.27,434.947L313.301,435L313.325,435.041C315.198,438.283 316.717,441.754 317.83,445.402L317.834,445.414L317.846,445.454L317.887,445.589L317.903,445.643L317.924,445.711L317.952,445.807L317.96,445.833L317.968,445.86C319.447,450.87 320.104,456.008 319.987,461.092C319.802,469.686 317.445,477.749 313.442,484.753C309.197,492.224 302.972,498.698 294.999,503.301C287.027,507.904 278.308,510.058 269.716,509.999C261.648,509.963 253.487,507.973 245.952,503.836C241.49,501.396 237.369,498.258 233.77,494.472L233.751,494.452L233.732,494.432L233.663,494.359L233.615,494.308L233.575,494.266L233.479,494.163L233.451,494.133L233.442,494.123C230.84,491.336 228.593,488.284 226.722,485.041L226.698,485L226.675,484.958L226.672,484.953L226.667,484.946C222.09,476.995 219.945,468.305 220,459.74C220.015,455.711 220.519,451.658 221.534,447.671C224.727,435.401 223.29,421.92 216.456,410.083C209.701,398.383 198.917,390.446 186.865,387.01C187.212,387.105 187.56,387.196 187.911,387.283L188.038,387.315L188.089,387.327L188.11,387.332L188.141,387.34C192.046,388.293 196.011,388.758 199.951,388.757L199.999,388.757L200.058,388.757C209.33,388.746 218.015,386.206 225.459,381.79C228.851,379.788 232.029,377.373 234.907,374.565C238.43,371.093 242.464,368.139 246.887,365.827Z" style="fill:rgb(65,203,195);"/>
            </g>
            <g transform="matrix(0.667292,0,0,0.667292,248.471,133.498)">
                <path d="M293.112,365.825C286.198,362.211 278.336,360.167 270,360.167C256.333,360.167 243.939,365.663 234.909,374.564C231.956,377.444 228.688,379.912 225.195,381.943C217.812,386.264 209.223,388.744 200.061,388.755L200.053,388.755L200.048,388.755L200,388.755L199.952,388.755C196.208,388.756 192.442,388.337 188.727,387.477L188.714,387.474L188.673,387.464L188.536,387.433L188.481,387.419L188.412,387.403L188.315,387.38L188.288,387.373L188.261,387.367C183.182,386.143 178.404,384.143 174.06,381.499C166.71,377.042 160.906,370.969 156.841,364.001C152.493,356.589 150,347.961 150,338.755C150,329.549 152.493,320.921 156.841,313.51C160.906,306.541 166.71,300.468 174.06,296.011C178.404,293.367 183.182,291.367 188.261,290.144L188.288,290.137L188.315,290.131L188.412,290.107L188.481,290.091L188.536,290.078L188.673,290.046L188.714,290.037L188.727,290.034C192.442,289.174 196.208,288.754 199.952,288.755L200,288.755L200.047,288.755L200.053,288.755L200.062,288.755C209.236,288.767 217.834,291.254 225.224,295.584C228.706,297.612 231.964,300.074 234.909,302.947C243.939,311.847 256.333,317.343 270,317.343C283.511,317.343 295.776,311.973 304.778,303.253C304.522,303.506 304.269,303.763 304.019,304.023L303.928,304.117L303.891,304.155L303.876,304.171L303.855,304.193C301.076,307.099 298.691,310.3 296.722,313.713L296.698,313.755L296.669,313.806C292.041,321.841 289.899,330.632 290.002,339.287C290.039,343.226 290.542,347.185 291.534,351.082C292.78,355.868 293.321,360.84 293.112,365.825Z" style="fill:rgb(28,128,197);"/>
            </g>
        </g>
        <g transform="matrix(1,0,0,1,0,188.914)">
            <path d="M931.435,396.461L931.435,397.922C931.435,398.687 930.815,399.307 930.05,399.307C925.886,399.307 912.924,399.307 907.472,399.307C906.814,399.306 906.207,399.663 905.886,400.237C905.565,400.812 905.58,401.516 905.926,402.076C905.928,402.077 905.928,402.078 905.929,402.08C906.44,402.907 907.097,403.625 907.9,404.233C908.702,404.841 909.602,405.315 910.6,405.656C911.597,405.996 912.631,406.167 913.701,406.167C915.599,406.167 917.204,405.814 918.518,405.108C919.172,404.757 919.766,404.355 920.299,403.901C921.255,403.08 922.633,402.979 923.698,403.652C924.775,404.296 926.099,405.132 927.261,405.866C928.017,406.343 928.51,407.142 928.598,408.032C928.686,408.921 928.358,409.802 927.71,410.417C926.411,411.576 924.95,412.565 923.298,413.355C920.501,414.693 917.253,415.362 913.555,415.362C910.831,415.362 908.252,414.936 905.82,414.085C903.387,413.233 901.259,411.993 899.434,410.363C897.61,408.733 896.174,406.726 895.128,404.342C894.082,401.958 893.559,399.234 893.559,396.169C893.559,393.201 894.07,390.513 895.092,388.105C896.114,385.696 897.5,383.653 899.252,381.974C901.003,380.296 903.071,378.994 905.455,378.07C907.839,377.146 910.417,376.683 913.191,376.683C915.866,376.683 918.323,377.133 920.561,378.034C922.799,378.934 924.721,380.235 926.327,381.938C927.932,383.641 929.185,385.708 930.085,388.141C930.985,390.574 931.435,393.347 931.435,396.461ZM815.838,395.877C815.838,398.845 815.302,401.533 814.232,403.941C813.162,406.349 811.702,408.393 809.853,410.071C808.004,411.75 805.864,413.051 803.431,413.975C800.999,414.9 798.396,415.362 795.623,415.362C792.898,415.362 790.307,414.9 787.85,413.975C785.393,413.051 783.253,411.75 781.428,410.071C779.604,408.393 778.156,406.349 777.086,403.941C776.016,401.533 775.481,398.845 775.481,395.877C775.481,392.909 776.016,390.233 777.086,387.849C778.156,385.465 779.604,383.446 781.428,381.792C783.253,380.138 785.393,378.873 787.85,377.997C790.307,377.121 792.898,376.683 795.623,376.683C798.396,376.683 800.999,377.121 803.431,377.997C805.864,378.873 808.004,380.138 809.853,381.792C811.702,383.446 813.162,385.465 814.232,387.849C815.302,390.233 815.838,392.909 815.838,395.877ZM850.262,414.194C849.493,414.194 848.756,413.889 848.213,413.346C847.669,412.802 847.364,412.065 847.364,411.296C847.364,410.359 847.364,409.494 847.364,409.236C847.364,409.216 847.356,409.196 847.341,409.181C847.327,409.167 847.307,409.159 847.287,409.159C847.287,409.159 847.287,409.159 847.286,409.159C847.245,409.159 847.206,409.182 847.186,409.219C846.753,410.024 846.192,410.782 845.503,411.494C844.798,412.224 843.971,412.856 843.022,413.392C842.073,413.927 841.027,414.365 839.884,414.705C838.741,415.046 837.536,415.216 836.271,415.216C833.839,415.216 831.783,414.778 830.105,413.902C828.426,413.027 827.064,411.895 826.018,410.509C824.972,409.122 824.218,407.541 823.756,405.765C823.293,403.989 823.062,402.177 823.062,400.328L823.062,380.749C823.062,379.98 823.368,379.243 823.911,378.7C824.455,378.156 825.192,377.851 825.96,377.851C827.852,377.851 830.314,377.851 832.206,377.851C832.974,377.851 833.712,378.156 834.255,378.7C834.798,379.243 835.104,379.98 835.104,380.749L835.104,397.555C835.104,398.577 835.177,399.55 835.323,400.474C835.469,401.399 835.748,402.226 836.162,402.956C836.576,403.685 837.123,404.257 837.804,404.671C838.485,405.084 839.385,405.291 840.504,405.291C842.596,405.291 844.19,404.512 845.284,402.956C846.379,401.399 846.926,399.574 846.926,397.482L846.926,380.749C846.926,379.98 847.232,379.243 847.775,378.7C848.318,378.156 849.056,377.851 849.824,377.851C851.697,377.851 854.124,377.851 855.997,377.851C857.597,377.851 858.895,379.148 858.895,380.749C858.895,387.554 858.895,404.492 858.895,411.296C858.895,412.065 858.589,412.802 858.046,413.346C857.502,413.889 856.765,414.194 855.997,414.194C854.243,414.194 852.015,414.194 850.262,414.194ZM884.124,386.827C883.355,386.827 882.618,387.133 882.075,387.676C881.531,388.22 881.226,388.957 881.226,389.725L881.226,400.693C881.226,402.396 881.554,403.673 882.211,404.525C882.868,405.376 884.048,405.802 885.751,405.802C886.335,405.802 886.955,405.753 887.612,405.656C887.612,405.656 887.612,405.656 887.612,405.656C888.028,405.594 888.45,405.715 888.77,405.986C889.09,406.258 889.278,406.654 889.285,407.074C889.307,408.428 889.338,410.27 889.362,411.71C889.385,413.108 888.408,414.324 887.037,414.6C886.788,414.647 886.53,414.695 886.262,414.742C884.997,414.961 883.732,415.07 882.467,415.07C880.034,415.07 877.991,414.766 876.337,414.158C876.337,414.158 876.337,414.158 876.336,414.158C874.682,413.55 873.357,412.674 872.359,411.531C871.362,410.387 870.644,409.025 870.206,407.444C869.768,405.863 869.55,404.099 869.55,402.153L869.55,389.725C869.55,388.125 868.252,386.827 866.652,386.827C866.637,386.827 866.623,386.827 866.609,386.827C865.009,386.827 863.711,385.53 863.711,383.93C863.711,382.906 863.711,381.756 863.711,380.734C863.711,379.969 864.015,379.236 864.556,378.695C865.096,378.155 865.829,377.851 866.594,377.851C866.594,377.851 866.594,377.851 866.594,377.851C867.359,377.851 868.092,377.547 868.632,377.007C869.173,376.466 869.477,375.733 869.477,374.969C869.477,373.772 869.477,372.387 869.477,371.189C869.477,369.588 870.774,368.291 872.374,368.291C874.188,368.291 876.515,368.291 878.328,368.291C879.929,368.291 881.226,369.588 881.226,371.189C881.226,372.382 881.226,373.76 881.226,374.953C881.226,375.722 881.531,376.459 882.075,377.002C882.618,377.546 883.355,377.851 884.124,377.851C885.009,377.851 885.982,377.851 886.867,377.851C887.635,377.851 888.372,378.156 888.916,378.7C889.459,379.243 889.765,379.98 889.765,380.749C889.765,381.767 889.765,382.911 889.765,383.93C889.765,384.698 889.459,385.435 888.916,385.979C888.372,386.522 887.635,386.827 886.867,386.827C885.982,386.827 885.009,386.827 884.124,386.827ZM773.375,385.908C773.355,386.32 773.167,386.706 772.854,386.976C772.542,387.246 772.133,387.376 771.723,387.337C771.722,387.338 771.722,387.338 771.722,387.338C771.211,387.29 770.713,387.265 770.226,387.265C770.226,387.265 770.226,387.265 770.226,387.265C768.621,387.265 767.27,387.557 766.176,388.141C765.081,388.725 764.205,389.43 763.549,390.257C762.892,391.084 762.417,391.985 762.125,392.958C761.834,393.931 761.688,394.782 761.688,395.512L761.688,411.296C761.688,412.065 761.382,412.802 760.839,413.346C760.295,413.889 759.558,414.194 758.79,414.194C756.917,414.194 754.49,414.194 752.617,414.194C751.017,414.194 749.719,412.897 749.719,411.296C749.719,404.492 749.719,387.554 749.719,380.749C749.719,379.98 750.024,379.243 750.568,378.7C751.111,378.156 751.848,377.851 752.617,377.851C754.37,377.851 756.598,377.851 758.352,377.851C759.12,377.851 759.858,378.156 760.401,378.7C760.944,379.243 761.25,379.98 761.25,380.749C761.25,381.781 761.25,382.757 761.25,383.03C761.25,383.072 761.283,383.106 761.325,383.106C761.325,383.106 761.326,383.106 761.326,383.106C761.369,383.105 761.408,383.082 761.427,383.043C762.35,381.223 763.653,379.735 765.337,378.581C767.039,377.413 769.01,376.829 771.248,376.829C771.734,376.829 772.209,376.854 772.671,376.902C772.671,376.902 772.672,376.902 772.672,376.902C773.309,376.97 773.783,377.522 773.751,378.162C773.664,379.97 773.482,383.708 773.375,385.908ZM804.307,395.877C804.307,394.709 804.112,393.566 803.723,392.447C803.334,391.328 802.774,390.343 802.045,389.491C801.315,388.64 800.415,387.946 799.344,387.411C798.274,386.876 797.033,386.608 795.623,386.608C794.212,386.608 792.971,386.876 791.901,387.411C790.83,387.946 789.942,388.64 789.237,389.491C788.531,390.343 787.996,391.328 787.631,392.447C787.266,393.566 787.084,394.709 787.084,395.877C787.084,397.044 787.266,398.188 787.631,399.307C787.996,400.426 788.544,401.435 789.273,402.335C790.003,403.235 790.903,403.953 791.974,404.488C793.044,405.023 794.285,405.291 795.695,405.291C797.106,405.291 798.347,405.023 799.417,404.488C800.488,403.953 801.388,403.235 802.118,402.335C802.847,401.435 803.395,400.426 803.76,399.307C804.124,398.188 804.307,397.044 804.307,395.877ZM727.731,399.818C726.963,399.818 726.226,399.512 725.682,398.969C725.139,398.425 724.834,397.688 724.834,396.92C724.834,395.748 724.834,394.399 724.834,393.228C724.834,392.46 725.139,391.723 725.682,391.179C726.226,390.636 726.963,390.33 727.731,390.33C731.207,390.33 736.997,390.33 740.472,390.33C741.241,390.33 741.978,390.636 742.521,391.179C743.065,391.723 743.37,392.46 743.37,393.228C743.37,394.399 743.37,395.748 743.37,396.92C743.37,397.688 743.065,398.425 742.521,398.969C741.978,399.512 741.241,399.818 740.472,399.818C736.997,399.818 731.207,399.818 727.731,399.818ZM918.229,391.863C918.857,391.863 919.446,391.558 919.808,391.045C920.17,390.532 920.261,389.875 920.05,389.283C919.701,388.454 919.244,387.678 918.627,386.973C917.435,385.611 915.647,384.93 913.264,384.93C912.096,384.93 911.026,385.112 910.052,385.477C909.079,385.842 908.228,386.341 907.498,386.973C906.768,387.606 906.185,388.348 905.747,389.199C905.747,389.199 905.747,389.2 905.746,389.2C905.455,389.766 905.48,390.444 905.812,390.987C906.144,391.531 906.735,391.863 907.372,391.863C910.327,391.863 915.356,391.863 918.229,391.863Z" style="fill:rgb(65,203,195);fill-opacity:0;"/>
        </g>
        <g transform="matrix(0.698113,3.08149e-33,-3.08149e-33,0.698113,253.567,309.669)">
            <path d="M603.554,394.094C603.554,397.718 602.997,401.202 601.882,404.547C600.767,407.893 599.146,410.837 597.021,413.381C594.895,415.924 592.299,417.963 589.233,419.496C586.166,421.029 582.682,421.796 578.779,421.796C575.573,421.796 572.542,421.151 569.684,419.862C566.862,418.589 564.652,416.856 563.054,414.665C563.016,414.613 562.956,414.583 562.892,414.583C562.892,414.583 562.892,414.583 562.892,414.583C562.833,414.583 562.785,414.631 562.785,414.689C562.785,416.193 562.785,433.231 562.785,441.27C562.785,443.563 560.927,445.421 558.634,445.421C555.952,445.421 552.474,445.421 549.792,445.421C548.691,445.421 547.635,444.984 546.857,444.205C546.078,443.427 545.641,442.371 545.641,441.27C545.641,427.865 545.641,385.829 545.641,372.424C545.641,370.132 547.499,368.273 549.792,368.273C552.246,368.273 555.344,368.273 557.798,368.273C558.899,368.273 559.954,368.711 560.733,369.489C561.511,370.267 561.949,371.323 561.949,372.424C561.949,373.354 561.949,374.162 561.949,374.492C561.949,374.534 561.965,374.574 561.995,374.604C562.024,374.633 562.065,374.65 562.106,374.65C562.107,374.65 562.107,374.65 562.108,374.65C562.205,374.65 562.297,374.605 562.356,374.528C563.951,372.488 566.133,370.699 568.9,369.162C571.723,367.594 575.051,366.81 578.884,366.81C582.647,366.81 586.062,367.541 589.128,369.005C592.195,370.468 594.791,372.455 596.916,374.964C599.042,377.472 600.679,380.382 601.829,383.692C602.979,387.003 603.554,390.47 603.554,394.094ZM515.744,428.173C515.742,428.176 515.741,428.179 515.74,428.182C514.695,430.896 513.529,433.315 512.242,435.438C510.952,437.563 509.419,439.375 507.642,440.874C505.865,442.372 503.774,443.505 501.37,444.271C498.965,445.038 496.126,445.421 492.85,445.421C491.247,445.421 489.592,445.317 487.885,445.107C487.764,445.093 487.645,445.078 487.527,445.062C486.435,444.92 485.444,444.35 484.773,443.478C484.101,442.605 483.804,441.501 483.946,440.41C484.255,438.04 484.645,435.05 484.931,432.856C485.027,432.121 485.419,431.457 486.016,431.017C486.613,430.577 487.363,430.4 488.093,430.526C488.094,430.525 488.094,430.525 488.094,430.525C489.104,430.699 490.028,430.786 490.864,430.786C493.512,430.786 495.429,430.176 496.613,428.957C497.792,427.743 498.799,426.029 499.633,423.815C499.637,423.804 499.641,423.793 499.645,423.782C499.647,423.777 500.227,422.291 500.703,421.071C501.097,420.061 501.08,418.938 500.657,417.94C497.866,411.366 486.96,385.674 482.025,374.046C481.48,372.764 481.615,371.295 482.384,370.133C483.153,368.972 484.453,368.273 485.846,368.273C489.146,368.273 493.037,368.273 495.646,368.273C497.414,368.273 498.988,369.393 499.568,371.064C502.224,378.721 509.474,399.624 510.152,401.578C510.183,401.666 510.266,401.725 510.359,401.725C510.359,401.725 510.359,401.725 510.36,401.725C510.453,401.725 510.536,401.664 510.563,401.575C511.17,399.613 517.561,378.957 519.961,371.197C520.499,369.459 522.107,368.273 523.927,368.273C526.396,368.273 529.945,368.273 532.985,368.273C534.356,368.273 535.638,368.95 536.412,370.081C537.185,371.212 537.351,372.652 536.854,373.93C531.046,388.852 515.753,428.148 515.744,428.173ZM665.963,394.93L665.963,397.023C665.962,398.119 665.074,399.007 663.978,399.007C658.014,399.007 639.447,399.007 631.638,399.007C630.694,399.007 629.825,399.517 629.365,400.34C628.906,401.163 628.927,402.171 629.423,402.974C629.425,402.975 629.426,402.977 629.427,402.979C630.159,404.164 631.1,405.192 632.25,406.063C633.399,406.934 634.689,407.614 636.117,408.102C637.546,408.589 639.027,408.833 640.56,408.833C643.278,408.833 645.578,408.328 647.46,407.318C648.397,406.814 649.247,406.238 650.011,405.588C651.38,404.413 653.355,404.268 654.88,405.231C656.423,406.154 658.318,407.351 659.983,408.402C661.066,409.086 661.773,410.231 661.898,411.505C662.024,412.779 661.554,414.04 660.626,414.922C658.766,416.581 656.673,417.999 654.307,419.13C650.299,421.047 645.648,422.005 640.351,422.005C636.448,422.005 632.755,421.395 629.27,420.176C625.786,418.956 622.737,417.179 620.123,414.844C617.51,412.51 615.454,409.635 613.956,406.22C612.457,402.805 611.708,398.902 611.708,394.512C611.708,390.261 612.44,386.41 613.903,382.961C615.367,379.511 617.353,376.584 619.862,374.179C622.371,371.775 625.333,369.911 628.748,368.587C632.162,367.263 635.856,366.601 639.828,366.601C643.661,366.601 647.181,367.245 650.387,368.535C653.592,369.824 656.345,371.688 658.645,374.127C660.945,376.566 662.739,379.528 664.029,383.013C665.318,386.497 665.963,390.47 665.963,394.93ZM470.24,381.131C469.139,381.131 468.083,381.568 467.305,382.347C466.526,383.125 466.089,384.181 466.089,385.282L466.089,400.993C466.089,403.432 466.559,405.262 467.5,406.481C468.441,407.701 470.131,408.311 472.57,408.311C473.406,408.311 474.295,408.241 475.236,408.102C475.236,408.102 475.236,408.101 475.237,408.101C475.832,408.013 476.436,408.186 476.895,408.575C477.353,408.964 477.622,409.532 477.632,410.133C477.664,412.073 477.708,414.711 477.743,416.774C477.777,418.777 476.376,420.518 474.413,420.914C474.056,420.981 473.686,421.05 473.302,421.116C471.49,421.43 469.678,421.587 467.866,421.587C464.381,421.587 461.454,421.151 459.085,420.28C459.085,420.28 459.085,420.28 459.085,420.28C456.715,419.409 454.816,418.154 453.388,416.517C451.959,414.879 450.931,412.928 450.304,410.663C449.677,408.398 449.363,405.871 449.363,403.084L449.363,385.282C449.363,382.99 447.504,381.131 445.212,381.131C445.192,381.131 445.171,381.131 445.151,381.131C442.858,381.131 441,379.273 441,376.98C441,375.514 441,373.866 441,372.402C441,371.307 441.435,370.257 442.209,369.482C442.984,368.708 444.034,368.273 445.129,368.273C445.129,368.273 445.129,368.273 445.13,368.273C446.225,368.273 447.275,367.838 448.049,367.064C448.823,366.29 449.258,365.239 449.258,364.144C449.258,362.431 449.258,360.446 449.258,358.73C449.258,356.437 451.117,354.579 453.409,354.579C456.007,354.579 459.34,354.579 461.938,354.579C464.23,354.579 466.089,356.437 466.089,358.73C466.089,360.438 466.089,362.414 466.089,364.122C466.089,365.223 466.526,366.279 467.305,367.057C468.083,367.836 469.139,368.273 470.24,368.273C471.507,368.273 472.901,368.273 474.169,368.273C475.269,368.273 476.325,368.711 477.104,369.489C477.882,370.267 478.32,371.323 478.32,372.424C478.32,373.883 478.32,375.521 478.32,376.98C478.32,378.081 477.882,379.137 477.104,379.915C476.325,380.694 475.269,381.131 474.169,381.131C472.901,381.131 471.507,381.131 470.24,381.131ZM586.933,394.094C586.933,392.421 586.672,390.783 586.149,389.18C585.626,387.578 584.86,386.166 583.849,384.947C582.839,383.727 581.567,382.734 580.034,381.967C578.5,381.201 576.723,380.818 574.702,380.818C572.751,380.818 571.009,381.201 569.475,381.967C567.942,382.734 566.635,383.745 565.555,384.999C564.475,386.253 563.639,387.682 563.046,389.285C562.454,390.888 562.158,392.526 562.158,394.198C562.158,395.871 562.454,397.509 563.046,399.111C563.639,400.714 564.475,402.143 565.555,403.397C566.635,404.652 567.942,405.662 569.475,406.429C571.009,407.196 572.751,407.579 574.702,407.579C576.723,407.579 578.5,407.196 580.034,406.429C581.567,405.662 582.839,404.652 583.849,403.397C584.86,402.143 585.626,400.697 586.149,399.059C586.672,397.421 586.933,395.766 586.933,394.094ZM647.046,388.344C647.946,388.344 648.789,387.907 649.308,387.172C649.827,386.437 649.956,385.496 649.654,384.649C649.154,383.461 648.499,382.349 647.616,381.34C645.909,379.389 643.348,378.413 639.933,378.413C638.26,378.413 636.727,378.675 635.333,379.197C633.94,379.72 632.72,380.434 631.675,381.34C630.629,382.246 629.793,383.309 629.166,384.529C629.166,384.529 629.165,384.529 629.165,384.53C628.748,385.341 628.784,386.311 629.259,387.09C629.734,387.869 630.581,388.344 631.494,388.344C635.727,388.344 642.93,388.344 647.046,388.344Z" style="fill:rgb(28,128,197);fill-opacity:0;"/>
        </g>
    </g>
</svg>
