<?xml version="1.0" encoding="UTF-8" standalone="no"?>
<!DOCTYPE svg PUBLIC "-//W3C//DTD SVG 1.1//EN" "http://www.w3.org/Graphics/SVG/1.1/DTD/svg11.dtd">
<svg width="100%" height="100%" viewBox="0 0 618 177" version="1.1" xmlns="http://www.w3.org/2000/svg" xmlns:xlink="http://www.w3.org/1999/xlink" xml:space="preserve" xmlns:serif="http://www.serif.com/" style="fill-rule:evenodd;clip-rule:evenodd;stroke-linejoin:round;stroke-miterlimit:1.41421;">
    <g transform="matrix(1,0,0,1,-368.936,-175.682)">
        <g transform="matrix(1,0,0,1,5.06464,-299.001)">
            <g transform="matrix(0.798753,0,0,0.798753,244.059,244.039)">
                <g transform="matrix(1,0,0,1,-152.736,92.1755)">
                    <path d="M422.737,313.683C429.324,309.502 435.025,303.716 439.193,296.497C446.027,284.66 447.464,271.179 444.271,258.909C443.253,254.911 442.75,250.847 442.737,246.806C442.687,238.252 444.833,229.573 449.405,221.633L449.409,221.627L449.411,221.622L449.435,221.58L449.459,221.539C451.33,218.296 453.577,215.244 456.179,212.457L456.188,212.447L456.216,212.417L456.312,212.314L456.352,212.272L456.4,212.221L456.469,212.148L456.488,212.128L456.507,212.108C460.106,208.322 464.227,205.184 468.689,202.744C476.224,198.607 484.385,196.617 492.453,196.581C501.045,196.522 509.764,198.676 517.736,203.279C525.709,207.882 531.934,214.356 536.179,221.827C540.182,228.831 542.539,236.894 542.724,245.488C542.841,250.572 542.184,255.71 540.705,260.72L540.697,260.747L540.689,260.773L540.661,260.869L540.64,260.937L540.624,260.991L540.583,261.126L540.571,261.166L540.567,261.178C539.454,264.826 537.935,268.297 536.062,271.539L536.038,271.58L536.014,271.621L536.011,271.626L536.006,271.634C531.41,279.573 524.957,285.776 517.512,290.011C514.015,292.012 510.253,293.603 506.293,294.717C494.07,298.087 483.113,306.072 476.279,317.909C469.524,329.609 468.042,342.916 471.093,355.072C471.002,354.724 470.906,354.376 470.806,354.03L470.77,353.904L470.755,353.853L470.749,353.832L470.74,353.802C469.614,349.944 468.034,346.277 466.062,342.865L466.038,342.824L466.009,342.773C461.364,334.748 454.821,328.497 447.275,324.259C443.845,322.321 440.164,320.777 436.294,319.688C431.526,318.374 426.95,316.357 422.737,313.683Z" style="fill:rgb(47,166,196);"/>
                </g>
                <path d="M246.887,365.827C247.214,373.622 249.375,381.452 253.542,388.671C260.376,400.508 271.333,408.493 283.556,411.863C287.527,412.981 291.298,414.577 294.804,416.586C302.237,420.82 308.68,427.018 313.27,434.947L313.301,435L313.325,435.041C315.198,438.283 316.717,441.754 317.83,445.402L317.834,445.414L317.846,445.454L317.887,445.589L317.903,445.643L317.924,445.711L317.952,445.807L317.96,445.833L317.968,445.86C319.447,450.87 320.104,456.008 319.987,461.092C319.802,469.686 317.445,477.749 313.442,484.753C309.197,492.224 302.972,498.698 294.999,503.301C287.027,507.904 278.308,510.058 269.716,509.999C261.648,509.963 253.487,507.973 245.952,503.836C241.49,501.396 237.369,498.258 233.77,494.472L233.751,494.452L233.732,494.432L233.663,494.359L233.615,494.308L233.575,494.266L233.479,494.163L233.451,494.133L233.442,494.123C230.84,491.336 228.593,488.284 226.722,485.041L226.698,485L226.675,484.958L226.672,484.953L226.667,484.946C222.09,476.995 219.945,468.305 220,459.74C220.015,455.711 220.519,451.658 221.534,447.671C224.727,435.401 223.29,421.92 216.456,410.083C209.701,398.383 198.917,390.446 186.865,387.01C187.212,387.105 187.56,387.196 187.911,387.283L188.038,387.315L188.089,387.327L188.11,387.332L188.141,387.34C192.046,388.293 196.011,388.758 199.951,388.757L199.999,388.757L200.058,388.757C209.33,388.746 218.015,386.206 225.459,381.79C228.851,379.788 232.029,377.373 234.907,374.565C238.43,371.093 242.464,368.139 246.887,365.827Z" style="fill:rgb(65,203,195);"/>
                <path d="M293.112,365.825C286.198,362.211 278.336,360.167 270,360.167C256.333,360.167 243.939,365.663 234.909,374.564C231.956,377.444 228.688,379.912 225.195,381.943C217.812,386.264 209.223,388.744 200.061,388.755L200.053,388.755L200.048,388.755L200,388.755L199.952,388.755C196.208,388.756 192.442,388.337 188.727,387.477L188.714,387.474L188.673,387.464L188.536,387.433L188.481,387.419L188.412,387.403L188.315,387.38L188.288,387.373L188.261,387.367C183.182,386.143 178.404,384.143 174.06,381.499C166.71,377.042 160.906,370.969 156.841,364.001C152.493,356.589 150,347.961 150,338.755C150,329.549 152.493,320.921 156.841,313.51C160.906,306.541 166.71,300.468 174.06,296.011C178.404,293.367 183.182,291.367 188.261,290.144L188.288,290.137L188.315,290.131L188.412,290.107L188.481,290.091L188.536,290.078L188.673,290.046L188.714,290.037L188.727,290.034C192.442,289.174 196.208,288.754 199.952,288.755L200,288.755L200.047,288.755L200.053,288.755L200.062,288.755C209.236,288.767 217.834,291.254 225.224,295.584C228.706,297.612 231.964,300.074 234.909,302.947C243.939,311.847 256.333,317.343 270,317.343C283.511,317.343 295.776,311.973 304.778,303.253C304.522,303.506 304.269,303.763 304.019,304.023L303.928,304.117L303.891,304.155L303.876,304.171L303.855,304.193C301.076,307.099 298.691,310.3 296.722,313.713L296.698,313.755L296.669,313.806C292.041,321.841 289.899,330.632 290.002,339.287C290.039,343.226 290.542,347.185 291.534,351.082C292.78,355.868 293.321,360.84 293.112,365.825Z" style="fill:rgb(28,128,197);"/>
            </g>
            <g transform="matrix(0.698113,3.08149e-33,-3.08149e-33,0.698113,303.874,283.798)">
                <g transform="matrix(1.38366,0,0,1.38366,-390.14,-335.267)">
                    <path d="M772.838,531.202C772.043,531.202 771.28,530.886 770.717,530.324C770.155,529.761 769.838,528.998 769.838,528.202C769.838,526.99 769.838,525.593 769.838,524.381C769.838,523.585 770.155,522.822 770.717,522.259C771.28,521.697 772.043,521.381 772.838,521.381C776.436,521.381 782.431,521.381 786.028,521.381C786.824,521.381 787.587,521.697 788.15,522.259C788.712,522.822 789.028,523.585 789.028,524.381C789.028,525.593 789.028,526.99 789.028,528.202C789.028,528.998 788.712,529.761 788.15,530.324C787.587,530.886 786.824,531.202 786.028,531.202C782.431,531.202 776.436,531.202 772.838,531.202Z" style="fill:rgb(65,203,195);"/>
                </g>
                <path d="M971,394.93L971,397.023C971,398.119 970.112,399.007 969.016,399.007C963.051,399.007 944.485,399.007 936.675,399.007C935.732,399.007 934.863,399.517 934.403,400.34C933.943,401.163 933.965,402.171 934.46,402.974C934.462,402.975 934.463,402.977 934.464,402.979C935.196,404.164 936.137,405.192 937.287,406.063C938.437,406.934 939.726,407.614 941.155,408.102C942.583,408.589 944.064,408.833 945.598,408.833C948.316,408.833 950.615,408.328 952.497,407.318C953.434,406.814 954.285,406.238 955.049,405.588C956.417,404.413 958.392,404.268 959.917,405.231C961.46,406.154 963.356,407.351 965.021,408.402C966.104,409.086 966.81,410.231 966.936,411.505C967.061,412.779 966.592,414.04 965.663,414.922C963.803,416.581 961.71,417.999 959.344,419.13C955.337,421.047 950.685,422.005 945.389,422.005C941.486,422.005 937.792,421.395 934.308,420.176C930.823,418.956 927.774,417.179 925.161,414.844C922.547,412.51 920.491,409.635 918.993,406.22C917.495,402.805 916.746,398.902 916.746,394.512C916.746,390.261 917.477,386.41 918.941,382.961C920.404,379.511 922.391,376.584 924.899,374.179C927.408,371.775 930.37,369.911 933.785,368.587C937.2,367.263 940.893,366.601 944.866,366.601C948.699,366.601 952.218,367.245 955.424,368.535C958.63,369.824 961.383,371.688 963.682,374.127C965.982,376.566 967.777,379.528 969.066,383.013C970.355,386.497 971,390.47 971,394.93ZM805.414,394.094C805.414,398.345 804.648,402.195 803.114,405.645C801.581,409.095 799.49,412.022 796.842,414.426C794.194,416.83 791.128,418.695 787.643,420.019C784.158,421.343 780.43,422.005 776.458,422.005C772.555,422.005 768.844,421.343 765.324,420.019C761.805,418.695 758.739,416.83 756.125,414.426C753.512,412.022 751.439,409.095 749.905,405.645C748.372,402.195 747.606,398.345 747.606,394.094C747.606,389.843 748.372,386.01 749.905,382.595C751.439,379.18 753.512,376.288 756.125,373.918C758.739,371.549 761.805,369.737 765.324,368.482C768.844,367.228 772.555,366.601 776.458,366.601C780.43,366.601 784.158,367.228 787.643,368.482C791.128,369.737 794.194,371.549 796.842,373.918C799.49,376.288 801.581,379.18 803.114,382.595C804.648,386.01 805.414,389.843 805.414,394.094ZM854.725,420.332C853.624,420.332 852.568,419.895 851.79,419.117C851.011,418.338 850.574,417.282 850.574,416.181C850.574,414.839 850.574,413.599 850.574,413.23C850.574,413.201 850.562,413.173 850.542,413.152C850.521,413.131 850.493,413.119 850.463,413.119C850.463,413.119 850.463,413.119 850.463,413.119C850.403,413.119 850.347,413.152 850.319,413.205C849.698,414.358 848.894,415.444 847.908,416.464C846.898,417.51 845.713,418.416 844.354,419.182C842.995,419.949 841.497,420.576 839.859,421.064C838.221,421.552 836.496,421.796 834.684,421.796C831.2,421.796 828.255,421.169 825.851,419.914C823.447,418.66 821.495,417.039 819.997,415.053C818.499,413.067 817.418,410.802 816.756,408.258C816.094,405.715 815.763,403.119 815.763,400.47L815.763,372.424C815.763,371.323 816.201,370.267 816.979,369.489C817.758,368.711 818.813,368.273 819.914,368.273C822.625,368.273 826.15,368.273 828.861,368.273C829.962,368.273 831.018,368.711 831.796,369.489C832.575,370.267 833.012,371.323 833.012,372.424L833.012,396.498C833.012,397.962 833.116,399.355 833.325,400.679C833.535,402.004 833.935,403.188 834.528,404.234C835.12,405.279 835.904,406.098 836.88,406.69C837.855,407.283 839.145,407.579 840.748,407.579C843.744,407.579 846.027,406.464 847.595,404.234C849.163,402.004 849.947,399.39 849.947,396.394L849.947,372.424C849.947,371.323 850.384,370.267 851.163,369.489C851.941,368.711 852.997,368.273 854.098,368.273C856.78,368.273 860.257,368.273 862.94,368.273C865.232,368.273 867.091,370.132 867.091,372.424C867.091,382.172 867.091,406.434 867.091,416.181C867.091,417.282 866.653,418.338 865.875,419.117C865.096,419.895 864.041,420.332 862.94,420.332C860.428,420.332 857.237,420.332 854.725,420.332ZM903.23,381.131C902.129,381.131 901.073,381.568 900.295,382.347C899.516,383.125 899.079,384.181 899.079,385.282L899.079,400.993C899.079,403.432 899.549,405.262 900.49,406.481C901.431,407.701 903.121,408.311 905.56,408.311C906.396,408.311 907.285,408.241 908.226,408.102C908.226,408.102 908.226,408.101 908.227,408.101C908.822,408.013 909.426,408.186 909.885,408.575C910.343,408.964 910.612,409.532 910.622,410.133C910.655,412.073 910.699,414.711 910.733,416.774C910.767,418.777 909.366,420.518 907.403,420.914C907.046,420.981 906.676,421.05 906.292,421.116C904.48,421.43 902.668,421.587 900.856,421.587C897.371,421.587 894.444,421.151 892.075,420.28C892.075,420.28 892.075,420.28 892.075,420.28C889.705,419.409 887.806,418.154 886.378,416.517C884.949,414.879 883.921,412.928 883.294,410.663C882.667,408.398 882.353,405.872 882.353,403.084L882.353,385.282C882.353,382.99 880.495,381.131 878.202,381.131C878.182,381.131 878.161,381.131 878.141,381.131C875.849,381.131 873.99,379.273 873.99,376.98C873.99,375.514 873.99,373.866 873.99,372.402C873.99,371.307 874.425,370.257 875.199,369.482C875.974,368.708 877.024,368.273 878.119,368.273C878.119,368.273 878.119,368.273 878.12,368.273C879.215,368.273 880.265,367.838 881.039,367.064C881.814,366.29 882.249,365.239 882.249,364.144C882.249,362.431 882.249,360.446 882.249,358.73C882.249,356.437 884.107,354.579 886.4,354.579C888.997,354.579 892.331,354.579 894.928,354.579C897.22,354.579 899.079,356.437 899.079,358.73C899.079,360.438 899.079,362.414 899.079,364.122C899.079,365.223 899.516,366.279 900.295,367.057C901.073,367.836 902.129,368.273 903.23,368.273C904.497,368.273 905.891,368.273 907.159,368.273C908.26,368.273 909.315,368.711 910.094,369.489C910.872,370.267 911.31,371.323 911.31,372.424C911.31,373.883 911.31,375.521 911.31,376.98C911.31,378.081 910.872,379.137 910.094,379.915C909.315,380.694 908.26,381.131 907.159,381.131C905.891,381.131 904.497,381.131 903.23,381.131ZM744.589,379.814C744.56,380.404 744.291,380.957 743.844,381.344C743.397,381.731 742.811,381.918 742.223,381.862C742.222,381.863 742.222,381.863 742.222,381.863C741.49,381.793 740.776,381.758 740.079,381.758C740.079,381.758 740.079,381.758 740.079,381.758C737.779,381.758 735.845,382.177 734.277,383.013C732.709,383.849 731.455,384.86 730.514,386.044C729.573,387.229 728.893,388.518 728.475,389.912C728.057,391.306 727.848,392.526 727.848,393.571L727.848,416.181C727.848,417.282 727.411,418.338 726.632,419.117C725.854,419.895 724.798,420.332 723.697,420.332C721.015,420.332 717.537,420.332 714.855,420.332C712.563,420.332 710.704,418.474 710.704,416.181C710.704,406.434 710.704,382.172 710.704,372.424C710.704,371.323 711.141,370.267 711.92,369.489C712.698,368.71 713.754,368.273 714.855,368.273C717.367,368.273 720.558,368.273 723.07,368.273C724.171,368.273 725.227,368.71 726.005,369.489C726.784,370.267 727.221,371.323 727.221,372.424C727.221,373.903 727.221,375.301 727.221,375.692C727.221,375.751 727.269,375.8 727.329,375.8C727.329,375.8 727.33,375.8 727.33,375.8C727.391,375.8 727.447,375.765 727.475,375.711C728.796,373.103 730.663,370.972 733.075,369.319C735.514,367.646 738.337,366.81 741.542,366.81C742.239,366.81 742.919,366.845 743.581,366.914C743.581,366.914 743.582,366.914 743.582,366.914C744.495,367.01 745.173,367.802 745.129,368.718C745.003,371.308 744.743,376.663 744.589,379.814ZM788.897,394.094C788.897,392.421 788.619,390.783 788.061,389.18C787.504,387.578 786.702,386.166 785.657,384.947C784.611,383.727 783.322,382.734 781.789,381.967C780.256,381.201 778.479,380.818 776.458,380.818C774.437,380.818 772.659,381.201 771.126,381.967C769.593,382.734 768.321,383.727 767.311,384.947C766.3,386.166 765.534,387.578 765.011,389.18C764.488,390.783 764.227,392.421 764.227,394.094C764.227,395.766 764.488,397.404 765.011,399.007C765.534,400.61 766.318,402.056 767.363,403.345C768.408,404.634 769.698,405.662 771.231,406.429C772.764,407.196 774.541,407.579 776.562,407.579C778.583,407.579 780.36,407.196 781.893,406.429C783.427,405.662 784.716,404.634 785.761,403.345C786.807,402.056 787.591,400.61 788.113,399.007C788.636,397.404 788.897,395.766 788.897,394.094ZM952.084,388.344C952.983,388.344 953.827,387.907 954.345,387.172C954.864,386.437 954.993,385.496 954.691,384.649C954.191,383.461 953.537,382.349 952.654,381.34C950.946,379.389 948.385,378.413 944.97,378.413C943.298,378.413 941.765,378.675 940.371,379.197C938.977,379.72 937.757,380.434 936.712,381.34C935.667,382.246 934.83,383.309 934.203,384.529C934.203,384.529 934.203,384.529 934.203,384.53C933.786,385.341 933.821,386.311 934.296,387.09C934.772,387.869 935.619,388.344 936.531,388.344C940.764,388.344 947.967,388.344 952.084,388.344Z" style="fill:rgb(65,203,195);"/>
                <path d="M603.554,394.094C603.554,397.718 602.997,401.202 601.882,404.547C600.767,407.893 599.146,410.837 597.021,413.381C594.895,415.924 592.299,417.963 589.233,419.496C586.166,421.029 582.682,421.796 578.779,421.796C575.573,421.796 572.542,421.151 569.684,419.862C566.862,418.589 564.652,416.856 563.054,414.665C563.016,414.613 562.956,414.583 562.892,414.583C562.892,414.583 562.892,414.583 562.892,414.583C562.833,414.583 562.785,414.631 562.785,414.689C562.785,416.193 562.785,433.231 562.785,441.27C562.785,443.563 560.927,445.421 558.634,445.421C555.952,445.421 552.474,445.421 549.792,445.421C548.691,445.421 547.635,444.984 546.857,444.205C546.078,443.427 545.641,442.371 545.641,441.27C545.641,427.865 545.641,385.829 545.641,372.424C545.641,370.132 547.499,368.273 549.792,368.273C552.246,368.273 555.344,368.273 557.798,368.273C558.899,368.273 559.954,368.711 560.733,369.489C561.511,370.267 561.949,371.323 561.949,372.424C561.949,373.354 561.949,374.162 561.949,374.492C561.949,374.534 561.965,374.574 561.995,374.604C562.024,374.633 562.065,374.65 562.106,374.65C562.107,374.65 562.107,374.65 562.108,374.65C562.205,374.65 562.297,374.605 562.356,374.528C563.951,372.488 566.133,370.699 568.9,369.162C571.723,367.594 575.051,366.81 578.884,366.81C582.647,366.81 586.062,367.541 589.128,369.005C592.195,370.468 594.791,372.455 596.916,374.964C599.042,377.472 600.679,380.382 601.829,383.692C602.979,387.003 603.554,390.47 603.554,394.094ZM515.744,428.173C515.742,428.176 515.741,428.179 515.74,428.182C514.695,430.896 513.529,433.315 512.242,435.438C510.952,437.563 509.419,439.375 507.642,440.874C505.865,442.372 503.774,443.505 501.37,444.271C498.965,445.038 496.126,445.421 492.85,445.421C491.247,445.421 489.592,445.317 487.885,445.107C487.764,445.093 487.645,445.078 487.527,445.062C486.435,444.92 485.444,444.35 484.773,443.478C484.101,442.605 483.804,441.501 483.946,440.41C484.255,438.04 484.645,435.05 484.931,432.856C485.027,432.121 485.419,431.457 486.016,431.017C486.613,430.577 487.363,430.4 488.093,430.526C488.094,430.525 488.094,430.525 488.094,430.525C489.104,430.699 490.028,430.786 490.864,430.786C493.512,430.786 495.429,430.176 496.613,428.957C497.792,427.743 498.799,426.029 499.633,423.815C499.637,423.804 499.641,423.793 499.645,423.782C499.647,423.777 500.227,422.291 500.703,421.071C501.097,420.061 501.08,418.938 500.657,417.94C497.866,411.366 486.96,385.674 482.025,374.046C481.48,372.764 481.615,371.295 482.384,370.133C483.153,368.972 484.453,368.273 485.846,368.273C489.146,368.273 493.037,368.273 495.646,368.273C497.414,368.273 498.988,369.393 499.568,371.064C502.224,378.721 509.474,399.624 510.152,401.578C510.183,401.666 510.266,401.725 510.359,401.725C510.359,401.725 510.359,401.725 510.36,401.725C510.453,401.725 510.536,401.664 510.563,401.575C511.17,399.613 517.561,378.957 519.961,371.197C520.499,369.459 522.107,368.273 523.927,368.273C526.396,368.273 529.945,368.273 532.985,368.273C534.356,368.273 535.638,368.95 536.412,370.081C537.185,371.212 537.351,372.652 536.854,373.93C531.046,388.852 515.753,428.148 515.744,428.173ZM665.963,394.93L665.963,397.023C665.962,398.119 665.074,399.007 663.978,399.007C658.014,399.007 639.447,399.007 631.638,399.007C630.694,399.007 629.825,399.517 629.365,400.34C628.906,401.163 628.927,402.171 629.423,402.974C629.425,402.975 629.426,402.977 629.427,402.979C630.159,404.164 631.1,405.192 632.25,406.063C633.399,406.934 634.689,407.614 636.117,408.102C637.546,408.589 639.027,408.833 640.56,408.833C643.278,408.833 645.578,408.328 647.46,407.318C648.397,406.814 649.247,406.238 650.011,405.588C651.38,404.413 653.355,404.268 654.88,405.231C656.423,406.154 658.318,407.351 659.983,408.402C661.066,409.086 661.773,410.231 661.898,411.505C662.024,412.779 661.554,414.04 660.626,414.922C658.766,416.581 656.673,417.999 654.307,419.13C650.299,421.047 645.648,422.005 640.351,422.005C636.448,422.005 632.755,421.395 629.27,420.176C625.786,418.956 622.737,417.179 620.123,414.844C617.51,412.51 615.454,409.635 613.956,406.22C612.457,402.805 611.708,398.902 611.708,394.512C611.708,390.261 612.44,386.41 613.903,382.961C615.367,379.511 617.353,376.584 619.862,374.179C622.371,371.775 625.333,369.911 628.748,368.587C632.162,367.263 635.856,366.601 639.828,366.601C643.661,366.601 647.181,367.245 650.387,368.535C653.592,369.824 656.345,371.688 658.645,374.127C660.945,376.566 662.739,379.528 664.029,383.013C665.318,386.497 665.963,390.47 665.963,394.93ZM470.24,381.131C469.139,381.131 468.083,381.568 467.305,382.347C466.526,383.125 466.089,384.181 466.089,385.282L466.089,400.993C466.089,403.432 466.559,405.262 467.5,406.481C468.441,407.701 470.131,408.311 472.57,408.311C473.406,408.311 474.295,408.241 475.236,408.102C475.236,408.102 475.236,408.101 475.237,408.101C475.832,408.013 476.436,408.186 476.895,408.575C477.353,408.964 477.622,409.532 477.632,410.133C477.664,412.073 477.708,414.711 477.743,416.774C477.777,418.777 476.376,420.518 474.413,420.914C474.056,420.981 473.686,421.05 473.302,421.116C471.49,421.43 469.678,421.587 467.866,421.587C464.381,421.587 461.454,421.151 459.085,420.28C459.085,420.28 459.085,420.28 459.085,420.28C456.715,419.409 454.816,418.154 453.388,416.517C451.959,414.879 450.931,412.928 450.304,410.663C449.677,408.398 449.363,405.871 449.363,403.084L449.363,385.282C449.363,382.99 447.504,381.131 445.212,381.131C445.192,381.131 445.171,381.131 445.151,381.131C442.858,381.131 441,379.273 441,376.98C441,375.514 441,373.866 441,372.402C441,371.307 441.435,370.257 442.209,369.482C442.984,368.708 444.034,368.273 445.129,368.273C445.129,368.273 445.129,368.273 445.13,368.273C446.225,368.273 447.275,367.838 448.049,367.064C448.823,366.29 449.258,365.239 449.258,364.144C449.258,362.431 449.258,360.446 449.258,358.73C449.258,356.437 451.117,354.579 453.409,354.579C456.007,354.579 459.34,354.579 461.938,354.579C464.23,354.579 466.089,356.437 466.089,358.73C466.089,360.438 466.089,362.414 466.089,364.122C466.089,365.223 466.526,366.279 467.305,367.057C468.083,367.836 469.139,368.273 470.24,368.273C471.507,368.273 472.901,368.273 474.169,368.273C475.269,368.273 476.325,368.711 477.104,369.489C477.882,370.267 478.32,371.323 478.32,372.424C478.32,373.883 478.32,375.521 478.32,376.98C478.32,378.081 477.882,379.137 477.104,379.915C476.325,380.694 475.269,381.131 474.169,381.131C472.901,381.131 471.507,381.131 470.24,381.131ZM586.933,394.094C586.933,392.421 586.672,390.783 586.149,389.18C585.626,387.578 584.86,386.166 583.849,384.947C582.839,383.727 581.567,382.734 580.034,381.967C578.5,381.201 576.723,380.818 574.702,380.818C572.751,380.818 571.009,381.201 569.475,381.967C567.942,382.734 566.635,383.745 565.555,384.999C564.475,386.253 563.639,387.682 563.046,389.285C562.454,390.888 562.158,392.526 562.158,394.198C562.158,395.871 562.454,397.509 563.046,399.111C563.639,400.714 564.475,402.143 565.555,403.397C566.635,404.652 567.942,405.662 569.475,406.429C571.009,407.196 572.751,407.579 574.702,407.579C576.723,407.579 578.5,407.196 580.034,406.429C581.567,405.662 582.839,404.652 583.849,403.397C584.86,402.143 585.626,400.697 586.149,399.059C586.672,397.421 586.933,395.766 586.933,394.094ZM647.046,388.344C647.946,388.344 648.789,387.907 649.308,387.172C649.827,386.437 649.956,385.496 649.654,384.649C649.154,383.461 648.499,382.349 647.616,381.34C645.909,379.389 643.348,378.413 639.933,378.413C638.26,378.413 636.727,378.675 635.333,379.197C633.94,379.72 632.72,380.434 631.675,381.34C630.629,382.246 629.793,383.309 629.166,384.529C629.166,384.529 629.165,384.529 629.165,384.53C628.748,385.341 628.784,386.311 629.259,387.09C629.734,387.869 630.581,388.344 631.494,388.344C635.727,388.344 642.93,388.344 647.046,388.344Z" style="fill:rgb(28,128,197);"/>
            </g>
        </g>
    </g>
</svg>
